<?xml version="1.0" encoding="UTF-8"?>
<svg width="64" height="64" viewBox="0 0 64 64" xmlns="http://www.w3.org/2000/svg">
  <!-- Background circle -->
  <circle cx="32" cy="32" r="30" fill="#55c2d6" stroke="#4a9fb5" stroke-width="2"/>
  
  <!-- Sky elements (simplified clouds) -->
  <g fill="#ffffff" opacity="0.8">
    <ellipse cx="18" cy="15" rx="4" ry="2.5"/>
    <ellipse cx="22" cy="14" rx="3" ry="2"/>
    <ellipse cx="42" cy="12" rx="3" ry="2"/>
    <ellipse cx="46" cy="13" rx="3" ry="2"/>
  </g>
  
  <!-- Network scanning elements -->
  <g stroke="#ffffff" stroke-width="1.5" fill="none">
    <!-- Central scanning node -->
    <circle cx="32" cy="32" r="4" fill="#ffffff"/>
    
    <!-- Scanning connections -->
    <line x1="32" y1="32" x2="20" y2="22" stroke-dasharray="2,1"/>
    <line x1="32" y1="32" x2="44" y2="22" stroke-dasharray="2,1"/>
    <line x1="32" y1="32" x2="22" y2="42" stroke-dasharray="2,1"/>
    <line x1="32" y1="32" x2="42" y2="42" stroke-dasharray="2,1"/>
    
    <!-- Target nodes -->
    <circle cx="20" cy="22" r="2" fill="#ffffff"/>
    <circle cx="44" cy="22" r="2" fill="#ffffff"/>
    <circle cx="22" cy="42" r="2" fill="#ffffff"/>
    <circle cx="42" cy="42" r="2" fill="#ffffff"/>
  </g>
  
  <!-- SKY text -->
  <text x="32" y="52" text-anchor="middle" font-family="Arial, sans-serif" font-weight="bold" font-size="8" fill="#ffffff">SKY</text>
  
  <!-- Security shield -->
  <path d="M28 25 L32 23 L36 25 L36 30 Q36 33 32 34 Q28 33 28 30 Z" fill="#ffffff" opacity="0.4" stroke="none"/>
</svg>